<?xml version="1.0" encoding="utf-8"?>
<!-- Generator: Adobe Illustrator 22.0.1, SVG Export Plug-In . SVG Version: 6.00 Build 0)  -->
<svg version="1.1" id="Layer_1" xmlns="http://www.w3.org/2000/svg" xmlns:xlink="http://www.w3.org/1999/xlink" x="0px" y="0px"
	 viewBox="0 0 514.4 50" style="enable-background:new 0 0 514.4 50;" xml:space="preserve" width="514.4" height="50">
<style type="text/css">
	.st0{fill:#FFFFFF;}
</style>
<g>
	<path class="st0" d="M20.1,0.1c-0.6,1.2-1.3,2.4-1.9,3.6c-1.4,2.9-2.5,5.9-3,9.1c-0.5,2.9-0.5,5.8,0.7,8.6c1.6,3.8,4.4,6.1,8.3,7.1
		c2.2,0.6,4.4,0.6,6.6,0.5c3.8-0.2,7.4-1.1,11-2.1c14.5-3.9,29-7.7,43.5-11.5c12-3.2,24.1-6.4,36.1-9.6c6.3-1.7,12.6-3.4,18.9-5
		c0.1,0,0.1,0,0.2,0c-0.4,0.2-0.8,0.3-1.2,0.5c-32.7,14-65.5,28-98.2,42c-3.7,1.6-7.3,3.1-11.1,4.3c-2.9,0.9-5.8,1.6-8.8,2
		c-3.3,0.5-6.7,0.6-10-0.3c-4.8-1.2-8.3-4-10.2-8.6c-0.9-2.2-1.1-4.5-1-6.9c0.4-5.1,2.2-9.8,4.7-14.2c2.2-3.9,4.8-7.5,7.7-10.9
		c2.4-2.9,4.9-5.6,7.4-8.4C19.9,0.3,20,0.1,20.1,0.1C20.1,0,20.1,0,20.1,0.1z"/>
	<g>
		<path class="st0" d="M175.1,32c0,2.6-0.3,5-1,7.1c-0.6,2.1-1.6,3.9-2.9,5.3c-1.3,1.5-2.8,2.6-4.7,3.4s-4,1.2-6.5,1.2
			c-1.1,0-2.2-0.1-3.3-0.2s-2.3-0.4-3.4-0.7l0.4-4.5c0.1-0.4,0.2-0.8,0.5-1s0.7-0.4,1.2-0.4c0.4,0,0.9,0.1,1.5,0.2
			c0.6,0.2,1.4,0.2,2.4,0.2c1.3,0,2.5-0.2,3.5-0.6s1.9-1,2.6-1.8c0.7-0.8,1.2-1.9,1.6-3.2c0.4-1.3,0.5-2.9,0.5-4.8V1.6h7.6L175.1,32
			L175.1,32z"/>
		<path class="st0" d="M204.2,42.3c1.8,0,3.4-0.3,4.8-0.9c1.4-0.6,2.6-1.5,3.6-2.5c1-1.1,1.7-2.4,2.3-3.9s0.8-3.2,0.8-5.1V1.6h7.6
			v28.2c0,2.8-0.4,5.3-1.3,7.6c-0.9,2.3-2.1,4.4-3.8,6.1c-1.6,1.7-3.6,3-6,4s-5,1.4-7.9,1.4s-5.6-0.5-7.9-1.4c-2.4-1-4.4-2.3-6-4
			s-2.9-3.7-3.8-6.1c-0.9-2.3-1.3-4.9-1.3-7.6V1.6h7.6v28.2c0,1.9,0.3,3.6,0.8,5.1s1.3,2.8,2.2,3.9s2.2,1.9,3.6,2.6
			C200.8,42,202.4,42.3,204.2,42.3z"/>
		<path class="st0" d="M258.3,9.6c-0.2,0.4-0.5,0.7-0.7,0.9c-0.3,0.2-0.6,0.3-1,0.3s-0.9-0.2-1.4-0.5s-1.1-0.7-1.9-1.2
			c-0.7-0.4-1.6-0.8-2.6-1.2c-1-0.4-2.2-0.5-3.6-0.5c-1.3,0-2.4,0.2-3.4,0.5s-1.8,0.8-2.5,1.4s-1.2,1.3-1.5,2.1
			c-0.3,0.8-0.5,1.7-0.5,2.6c0,1.2,0.3,2.2,0.9,3c0.6,0.8,1.5,1.5,2.5,2c1,0.6,2.2,1.1,3.5,1.5s2.7,0.9,4,1.3c1.4,0.5,2.7,1,4,1.6
			s2.5,1.4,3.5,2.3s1.9,2.1,2.5,3.4s0.9,3,0.9,4.9c0,2.1-0.4,4-1.1,5.9c-0.7,1.8-1.8,3.4-3.1,4.8c-1.4,1.4-3,2.4-5,3.2
			s-4.2,1.2-6.8,1.2c-1.5,0-3-0.1-4.4-0.4s-2.8-0.7-4.1-1.2s-2.5-1.2-3.6-1.9c-1.1-0.8-2.1-1.6-3-2.5l2.2-3.6
			c0.2-0.3,0.4-0.5,0.7-0.7s0.6-0.3,1-0.3c0.5,0,1.1,0.2,1.7,0.7c0.6,0.5,1.3,1,2.2,1.5c0.9,0.6,1.9,1.1,3.1,1.5
			c1.2,0.5,2.7,0.7,4.4,0.7c2.8,0,4.9-0.7,6.4-2s2.3-3.2,2.3-5.6c0-1.3-0.3-2.4-0.9-3.2c-0.6-0.8-1.5-1.5-2.5-2.1s-2.2-1-3.5-1.4
			s-2.7-0.8-4-1.3c-1.4-0.4-2.7-1-4-1.6s-2.5-1.4-3.5-2.3s-1.9-2.2-2.5-3.6s-0.9-3.2-0.9-5.3c0-1.7,0.3-3.3,1-4.9s1.6-3,2.9-4.2
			c1.3-1.2,2.8-2.2,4.7-2.9s4-1.1,6.4-1.1c2.7,0,5.2,0.4,7.4,1.3c2.2,0.8,4.2,2,5.8,3.6L258.3,9.6z"/>
		<path class="st0" d="M301.5,7.9h-14.6v40.5h-7.6V7.9h-14.6V1.6h36.8L301.5,7.9L301.5,7.9z"/>
		<path class="st0" d="M369.3,25c0,3.5-0.6,6.6-1.7,9.5s-2.7,5.3-4.8,7.4c-2,2.1-4.5,3.7-7.4,4.8s-6.1,1.7-9.6,1.7h-17.6V1.6h17.7
			c3.5,0,6.7,0.6,9.6,1.7s5.3,2.7,7.4,4.8c2,2.1,3.6,4.5,4.8,7.4S369.3,21.5,369.3,25z M361.5,25c0-2.7-0.4-5.1-1.1-7.2
			s-1.8-4-3.1-5.4c-1.4-1.5-3-2.6-4.9-3.4s-4.1-1.2-6.5-1.2h-10v34.5h10c2.4,0,4.6-0.4,6.5-1.2s3.6-1.9,4.9-3.4
			c1.4-1.5,2.4-3.3,3.1-5.4C361.2,30.1,361.5,27.7,361.5,25z"/>
		<path class="st0" d="M421.6,25c0,3.5-0.6,6.7-1.7,9.6s-2.7,5.4-4.8,7.6c-2,2.1-4.5,3.8-7.4,5s-6.1,1.8-9.6,1.8s-6.7-0.6-9.5-1.8
			s-5.3-2.8-7.4-5c-2.1-2.1-3.7-4.6-4.8-7.6c-1.1-2.9-1.7-6.1-1.7-9.6s0.6-6.7,1.7-9.6s2.7-5.4,4.8-7.6c2.1-2.1,4.5-3.8,7.4-5
			s6.1-1.8,9.5-1.8c3.5,0,6.7,0.6,9.6,1.8s5.3,2.8,7.4,5c2,2.1,3.6,4.6,4.8,7.6S421.6,21.5,421.6,25z M413.9,25
			c0-2.7-0.4-5.1-1.1-7.2s-1.8-4-3.1-5.5c-1.4-1.5-3-2.6-4.9-3.4s-4.1-1.2-6.5-1.2s-4.5,0.4-6.5,1.2c-1.9,0.8-3.6,2-4.9,3.4
			s-2.4,3.3-3.2,5.5c-0.7,2.1-1.1,4.6-1.1,7.2c0,2.7,0.4,5.1,1.1,7.3c0.7,2.1,1.8,4,3.2,5.4c1.4,1.5,3,2.6,4.9,3.4s4.1,1.2,6.5,1.2
			s4.6-0.4,6.5-1.2s3.6-1.9,4.9-3.4c1.4-1.5,2.4-3.3,3.1-5.4C413.5,30.1,413.9,27.7,413.9,25z"/>
		<path class="st0" d="M457.8,48.4h-7.6V1.6h7.6V48.4z"/>
		<path class="st0" d="M501.1,7.9h-14.6v40.5h-7.6V7.9h-14.6V1.6h36.8L501.1,7.9L501.1,7.9z"/>
		<path class="st0" d="M505.4,44.4c0-0.6,0.1-1.2,0.3-1.8c0.2-0.6,0.5-1,0.9-1.4s0.9-0.7,1.4-1c0.6-0.2,1.1-0.4,1.8-0.4
			c0.6,0,1.2,0.1,1.8,0.4c0.6,0.2,1,0.6,1.4,1s0.7,0.9,1,1.4c0.2,0.6,0.4,1.1,0.4,1.8s-0.1,1.2-0.4,1.8s-0.6,1-1,1.4s-0.9,0.7-1.4,1
			c-0.5,0.3-1.1,0.3-1.8,0.3c-0.6,0-1.2-0.1-1.8-0.3c-0.6-0.2-1-0.5-1.4-1c-0.4-0.4-0.7-0.9-0.9-1.4S505.4,45,505.4,44.4z"/>
	</g>
</g>
</svg>
