<?xml version="1.0" encoding="utf-8"?>
<!-- Generator: Adobe Illustrator 22.0.1, SVG Export Plug-In . SVG Version: 6.00 Build 0)  -->
<svg version="1.1" id="Layer_1" xmlns="http://www.w3.org/2000/svg" xmlns:xlink="http://www.w3.org/1999/xlink" x="0px" y="0px"
	 viewBox="0 0 20 17" style="enable-background:new 0 0 20 17;" xml:space="preserve">
<style type="text/css">
	.st0{fill:#FFFFFF;}
</style>
<path class="st0" d="M10,0L4.8,4.9h3.3V10h3.8V4.9h3.3C15.2,4.9,10,0,10,0z M19.3,11.5l-3.2-2.1h-2l3.4,2.6H14
	c-0.1,0-0.2,0.1-0.2,0.1L13,14.4H7l-0.8-2.2C6.1,12.1,6.1,12,6,12H2.4l3.4-2.6h-2l-3.2,2.1c-0.4,0.3-0.7,1-0.6,1.5l0.6,3.1
	C0.7,16.6,1.3,17,1.8,17h16.3c0.6,0,1.1-0.4,1.3-0.9L20,13C20.1,12.5,19.8,11.8,19.3,11.5z"/>
</svg>
